<svg xmlns="http://www.w3.org/2000/svg" viewBox="0 0 192 192" fill="none">
  <rect width="192" height="192" rx="42" fill="#0B0D10"/>
  <rect x="11" y="11" width="170" height="170" rx="32" stroke="#D8A45D" stroke-opacity=".26" stroke-width="4"/>
  <path d="M32.25 96H159.75" stroke="#F3EFE7" stroke-opacity=".10" stroke-width="3" stroke-linecap="round"/>
  <path d="M96 28.5V163.5" stroke="#D8A45D" stroke-width="8.25" stroke-linecap="round"/>
  <path d="M39 107.25C75.75 101.625 100.125 82.875 112.5 49.5C120 82.875 133.5 102.375 153 107.25C123 111.75 104.25 129.75 96.75 159.75C86.625 129 67.5 112.125 39 107.25Z" fill="#F3EFE7"/>
  <path d="M65.25 106.5C83.25 101.25 95.25 89.25 101.625 70.5C106.5 88.5 115.875 100.5 129.75 106.5C112.5 111.375 101.25 122.25 96.75 139.125C91.125 122.25 80.625 111.375 65.25 106.5Z" fill="#D8A45D"/>
</svg>
