<svg xmlns="http://www.w3.org/2000/svg" viewBox="0 0 32 32" fill="none">
  <rect width="32" height="32" rx="7" fill="#101318"/>
  <path d="M6.5 20.8C10.6 13.9 15.8 9 24.6 6.8C21.2 10.5 19.6 13.8 19.3 18.2C15.6 18.3 11.8 19.1 6.5 20.8Z" fill="#F5F1E8"/>
  <path d="M6.4 20.8C11.7 19 15.6 18.3 19.3 18.2C19 21.1 19.8 23.6 21.9 26.1C15.7 25.1 10.7 23.5 6.4 20.8Z" fill="#FF6B4A"/>
  <path d="M8.1 10.8C13.1 8.3 18.7 7 24.6 6.8C16.1 9.3 11 13.9 6.5 20.8C7.1 17.5 7.6 13.9 8.1 10.8Z" fill="#F5F1E8"/>
  <path d="M9.2 13.1C13 10.2 17.6 8.4 24.6 6.8C19.5 9.5 16.3 12.9 14.3 17.2C11.8 18 9.3 19 6.5 20.8C7.6 18 8.5 15.3 9.2 13.1Z" fill="#FF6B4A"/>
  <path d="M6.6 20.8C10.7 23.5 15.7 25.1 21.9 26.1C18.7 23.2 17.4 20.4 18 17.1C15.3 19 11.8 20.1 6.6 20.8Z" fill="#F5F1E8" fill-opacity=".92"/>
  <circle cx="24.4" cy="6.7" r="1.8" fill="#7DD3FC"/>
</svg>
