<svg width="512" height="512" viewBox="0 0 512 512" fill="none" xmlns="http://www.w3.org/2000/svg">
  <rect width="512" height="512" rx="108" fill="#0B0D10"/>
  <rect x="28" y="28" width="456" height="456" rx="86" stroke="#D8A45D" stroke-opacity=".26" stroke-width="10"/>
  <path d="M86 256H426" stroke="#F3EFE7" stroke-opacity=".10" stroke-width="8" stroke-linecap="round"/>
  <path d="M256 76V436" stroke="#D8A45D" stroke-width="22" stroke-linecap="round"/>
  <path d="M104 286C202 271 267 221 300 132C320 221 356 273 408 286C328 298 278 346 258 426C231 344 180 299 104 286Z" fill="#F3EFE7"/>
  <path d="M174 284C222 270 254 238 271 188C284 236 309 268 346 284C300 297 270 326 258 371C243 326 215 297 174 284Z" fill="#D8A45D"/>
  <path d="M256 100V412" stroke="#0B0D10" stroke-opacity=".12" stroke-width="6" stroke-linecap="round"/>
</svg>
